<svg xmlns="http://www.w3.org/2000/svg" viewBox="0 0 500 500" style="enable-background:new 0 0 500 500" xml:space="preserve"><path d="M368.934 140.4h-234.28a7.818 7.818 0 1 0 0 15.636h234.28c4.316 0 7.82-3.5 7.816-7.82 0-4.316-3.5-7.816-7.816-7.816zM165.998 179.484h-31.34a7.819 7.819 0 1 0 0 15.636h31.34c4.316 0 7.816-3.5 7.816-7.816 0-4.32-3.5-7.82-7.816-7.82zM368.938 179.484H201.114a7.819 7.819 0 1 0 0 15.636h167.82a7.818 7.818 0 1 0 .004-15.636zM368.934 218.572H337.59a7.817 7.817 0 0 0-7.816 7.816c0 4.32 3.5 7.82 7.816 7.82h31.344c4.316 0 7.82-3.5 7.816-7.82 0-4.316-3.5-7.816-7.816-7.816zM302.474 218.572h-167.82a7.818 7.818 0 1 0 0 15.636h167.82c4.316 0 7.816-3.5 7.816-7.82 0-4.316-3.5-7.816-7.816-7.816zM368.934 257.66h-234.28a7.818 7.818 0 1 0 0 15.636h234.28c4.316 0 7.816-3.496 7.816-7.816s-3.5-7.82-7.816-7.82zM368.934 374.92h-234.28a7.818 7.818 0 1 0 0 15.636h234.28c4.316 0 7.82-3.5 7.816-7.82 0-4.316-3.5-7.816-7.816-7.816zM165.998 296.748h-31.34a7.818 7.818 0 1 0 0 15.636h31.34c4.316 0 7.816-3.5 7.816-7.82 0-4.316-3.5-7.816-7.816-7.816zM368.938 296.748H201.114a7.818 7.818 0 1 0 0 15.636h167.82c4.316 0 7.82-3.5 7.82-7.82 0-4.316-3.5-7.816-7.816-7.816zM368.934 335.832H337.59c-4.316 0-7.816 3.504-7.816 7.82 0 4.316 3.5 7.816 7.816 7.816h31.344c4.316 0 7.816-3.496 7.816-7.816s-3.5-7.82-7.816-7.82zM302.474 335.832h-167.82a7.818 7.818 0 1 0 0 15.636h167.82c4.316 0 7.816-3.496 7.816-7.816s-3.5-7.82-7.816-7.82zM165.998 414.008h-31.34a7.818 7.818 0 1 0 0 15.636h31.34c4.316 0 7.816-3.496 7.816-7.816s-3.5-7.82-7.816-7.82zM368.938 414.008H201.114a7.818 7.818 0 1 0 0 15.636h167.82c4.316 0 7.82-3.496 7.82-7.816s-3.5-7.82-7.816-7.82z"/><path d="M427.562 46.592h-75.4c-3.444-15.636-17.532-27.36-34.356-27.36h-37.38C275.666 7.504 264.446 0 251.67 0s-23.996 7.504-28.756 19.232h-37.848c-16.828 0-30.912 11.728-34.356 27.36H75.778c-19.4 0-36.848 15.388-36.848 34.784V463.78c0 19.4 17.448 36.22 36.848 36.22h351.78c19.4 0 33.512-16.824 33.512-36.22V81.376c.004-19.396-14.112-34.784-33.508-34.784zM251.67 14.756c8.62 0 15.636 7.012 15.636 15.636 0 8.62-7.016 15.636-15.636 15.636-8.624 0-15.636-7.012-15.636-15.636 0-8.624 7.012-15.636 15.636-15.636zM81.926 464.824V73.952h66.448v11.82c0 2.16 3.256 3.816 5.416 3.816h195.284c2.16 0 2.552-1.656 2.552-3.816v-11.82h66.448v390.872H81.926z"/></svg>