<svg xmlns="http://www.w3.org/2000/svg" viewBox="0 0 369.946 369.946" style="enable-background:new 0 0 369.946 369.946" xml:space="preserve"><path style="fill:#010002" d="M184.973 0C82.981 0 0 82.975 0 184.973s82.981 184.973 184.973 184.973 184.973-82.975 184.973-184.973S286.965 0 184.973 0zm-8.079 281.821c-9.78 0-16.48-7.542-16.48-17.316 0-10.329 6.981-17.596 16.761-17.596 9.774 0 16.48 7.268 16.48 17.596 0 9.78-6.427 17.316-16.761 17.316zm27.101-104.742c-12.292 14.523-16.761 26.815-15.92 41.058l.28 7.262h-21.791l-.555-7.262c-1.677-15.084 3.353-31.565 17.316-48.326 12.566-14.798 19.547-25.693 19.547-38.266 0-14.249-8.938-23.742-26.535-24.023-10.06 0-21.23 3.353-28.211 8.658l-6.707-17.596c9.219-6.707 25.138-11.176 39.942-11.176 32.126 0 46.643 19.834 46.643 41.058.008 19.005-10.601 32.693-24.009 48.613z"/></svg>