<svg xmlns="http://www.w3.org/2000/svg" viewBox="0 0 338.203 338.203" style="enable-background:new 0 0 338.203 338.203" xml:space="preserve"><path d="M169.102 0C75.858 0 0 75.858 0 169.102s75.858 169.102 169.102 169.102 169.102-75.858 169.102-169.102S262.345 0 169.102 0zm0 308.203C92.4 308.203 30 245.803 30 169.102S92.4 30 169.102 30s139.102 62.4 139.102 139.102-62.401 139.101-139.102 139.101z"/><path d="M170.445 148.139c-9.012-7.582-36.24-28.066-58.86-44.921a5 5 0 0 0-6.996 6.997c16.859 22.623 37.345 49.852 44.921 58.856.232 4.786 2.154 9.507 5.811 13.162 7.811 7.811 20.475 7.811 28.285 0 7.811-7.809 7.811-20.473 0-28.283-3.656-3.655-8.374-5.577-13.161-5.811zM54.777 217.863a123.432 123.432 0 0 0 4.726 9.733l16.713-9.034a106.283 106.283 0 0 1-4.002-8.244l-17.437 7.545zM68.246 95.465l15.381 11.154a106.325 106.325 0 0 1 5.701-7.183L74.975 86.987a124.774 124.774 0 0 0-6.729 8.478zM120.057 75.057l-8.844-16.818a124.589 124.589 0 0 0-9.348 5.45l10.275 15.983a104.727 104.727 0 0 1 7.917-4.615zM69.6 133.313l-17.914-6.328a124.059 124.059 0 0 0-3.154 10.353l18.398 4.739c.759-2.95 1.658-5.898 2.67-8.764zM272.811 149.028l18.676-3.489a123.9 123.9 0 0 0-2.447-10.541l-18.303 5.103c.816 2.926 1.515 5.93 2.074 8.927zM63.654 172.08l-18.99.622c.119 3.593.395 7.225.824 10.789l18.865-2.27a105.318 105.318 0 0 1-.699-9.141zM268.506 93.526l-15.164 11.45a106.307 106.307 0 0 1 5.203 7.55l16.1-10.092a126.901 126.901 0 0 0-6.139-8.908zM262.145 218.262l16.748 8.973a124.138 124.138 0 0 0 4.691-9.758L266.119 210a106.367 106.367 0 0 1-3.974 8.262zM157.533 63.606l-2.055-18.887c-3.574.388-7.174.938-10.699 1.639l3.697 18.638a105.255 105.255 0 0 1 9.057-1.39zM274.547 171.713a107.98 107.98 0 0 1-.672 9.151l18.871 2.21c.416-3.557.682-7.182.793-10.781l-18.992-.58zM187.701 64.626c3 .533 6.01 1.204 8.945 1.995l4.943-18.346a124.69 124.69 0 0 0-10.561-2.355l-3.327 18.706zM224.322 78.575a105.21 105.21 0 0 1 7.592 5.142l11.33-15.252a124.45 124.45 0 0 0-8.961-6.07l-9.961 16.18z"/></svg>